<svg width="150" height="150" viewBox="0 0 150 150" fill="none" xmlns="http://www.w3.org/2000/svg">
<g clip-path="url(#clip0_19_423)">
<path d="M133.333 16.6667H16.6666C14.4565 16.6667 12.3369 17.5446 10.7741 19.1074C9.21129 20.6702 8.33331 22.7899 8.33331 25V125C8.33331 127.21 9.21129 129.33 10.7741 130.893C12.3369 132.455 14.4565 133.333 16.6666 133.333H133.333C135.543 133.333 137.663 132.455 139.226 130.893C140.789 129.33 141.667 127.21 141.667 125V25C141.667 22.7899 140.789 20.6702 139.226 19.1074C137.663 17.5446 135.543 16.6667 133.333 16.6667ZM37.1666 33.3333C39.6389 33.3333 42.0557 34.0664 44.1113 35.44C46.1669 36.8135 47.769 38.7657 48.7151 41.0498C49.6612 43.3339 49.9088 45.8472 49.4265 48.272C48.9441 50.6967 47.7536 52.924 46.0055 54.6722C44.2573 56.4203 42.03 57.6108 39.6053 58.0932C37.1805 58.5755 34.6672 58.3279 32.3831 57.3818C30.099 56.4357 28.1468 54.8336 26.7733 52.778C25.3998 50.7223 24.6666 48.3056 24.6666 45.8333C24.6666 42.5181 25.9836 39.3387 28.3278 36.9945C30.672 34.6503 33.8514 33.3333 37.1666 33.3333ZM25 112.5V95.4167L50 70.0833C50.7807 69.3073 51.8367 68.8717 52.9375 68.8717C54.0382 68.8717 55.0943 69.3073 55.875 70.0833L66.6666 80.625L34.6666 112.5H25ZM125 112.5H46.4583L72.4166 86.5417L94.9166 64.0417C95.6973 63.2656 96.7534 62.83 97.8541 62.83C98.9549 62.83 100.011 63.2656 100.792 64.0417L125 88.25V112.5Z" fill="white"/>
</g>
<defs>
<clipPath id="clip0_19_423">
<rect width="150" height="150" fill="white"/>
</clipPath>
</defs>
</svg>
