<svg width="83" height="83" viewBox="0 0 83 83" fill="none" xmlns="http://www.w3.org/2000/svg">
<path d="M45.3906 36.1426C44.4947 37.7657 43.1799 39.1189 41.5833 40.0612C39.9866 41.0035 38.1665 41.5003 36.3125 41.5H54.4688C52.6148 41.5003 50.7946 41.0035 49.198 40.0612C47.6013 39.1189 46.2865 37.7657 45.3906 36.1426Z" fill="white"/>
<path d="M36.3125 35.0156C38.4612 35.0156 40.2031 33.2737 40.2031 31.125C40.2031 28.9763 38.4612 27.2344 36.3125 27.2344C34.1638 27.2344 32.4219 28.9763 32.4219 31.125C32.4219 33.2737 34.1638 35.0156 36.3125 35.0156Z" fill="white"/>
<path d="M54.4688 35.0156C56.6175 35.0156 58.3594 33.2737 58.3594 31.125C58.3594 28.9763 56.6175 27.2344 54.4688 27.2344C52.32 27.2344 50.5781 28.9763 50.5781 31.125C50.5781 33.2737 52.32 35.0156 54.4688 35.0156Z" fill="white"/>
<path d="M41.5 2.59375C20.0134 2.59375 2.59375 20.0134 2.59375 41.5C2.59375 62.9866 20.0134 80.4062 41.5 80.4062C62.9866 80.4062 80.4062 62.9866 80.4062 41.5C80.4062 20.0134 62.9866 2.59375 41.5 2.59375ZM59.6562 41.5C61.0828 41.5 62.25 42.6672 62.25 44.0938V59.6562C62.25 61.0828 61.0828 62.25 59.6562 62.25H29.8281C28.4016 62.25 27.2344 61.0828 27.2344 59.6562V59.0078L20.75 62.25V41.5L27.2344 44.7422V44.0938C27.2344 42.6672 28.4016 41.5 29.8281 41.5H36.3125C33.5609 41.5 30.922 40.4069 28.9763 38.4612C27.0306 36.5155 25.9375 33.8766 25.9375 31.125C25.9375 28.3734 27.0306 25.7345 28.9763 23.7888C30.922 21.8431 33.5609 20.75 36.3125 20.75C38.1665 20.7497 39.9866 21.2465 41.5833 22.1888C43.1799 23.1311 44.4947 24.4843 45.3906 26.1074C46.2865 24.4843 47.6013 23.1311 49.198 22.1888C50.7946 21.2465 52.6148 20.7497 54.4688 20.75C57.2204 20.75 59.8593 21.8431 61.805 23.7888C63.7507 25.7345 64.8438 28.3734 64.8438 31.125C64.8438 33.8766 63.7507 36.5155 61.805 38.4612C59.8593 40.4069 57.2204 41.5 54.4688 41.5H59.6562Z" fill="white"/>
</svg>
