<svg width="150" height="150" viewBox="0 0 150 150" fill="none" xmlns="http://www.w3.org/2000/svg">
<mask id="mask0_41_165" style="mask-type:luminance" maskUnits="userSpaceOnUse" x="11" y="11" width="128" height="129">
<path d="M74.9069 137.42C109.174 137.42 136.951 109.642 136.951 75.3752C136.951 41.108 109.174 13.3306 74.9069 13.3306C40.6397 13.3306 12.8624 41.108 12.8624 75.3752C12.8624 109.642 40.6397 137.42 74.9069 137.42Z" fill="white" stroke="white" stroke-width="3.30904" stroke-linejoin="round"/>
<path d="M74.9069 56.7618C77.3752 56.7618 79.7424 55.7813 81.4877 54.0359C83.233 52.2906 84.2136 49.9234 84.2136 47.4551C84.2136 44.9868 83.233 42.6196 81.4877 40.8743C79.7424 39.129 77.3752 38.1484 74.9069 38.1484C72.4386 38.1484 70.0714 39.129 68.3261 40.8743C66.5807 42.6196 65.6002 44.9868 65.6002 47.4551C65.6002 49.9234 66.5807 52.2906 68.3261 54.0359C70.0714 55.7813 72.4386 56.7618 74.9069 56.7618ZM74.9069 112.602C77.3752 112.602 79.7424 111.621 81.4877 109.876C83.233 108.131 84.2136 105.763 84.2136 103.295C84.2136 100.827 83.233 98.4597 81.4877 96.7144C79.7424 94.969 77.3752 93.9885 74.9069 93.9885C72.4386 93.9885 70.0714 94.969 68.3261 96.7144C66.5807 98.4597 65.6002 100.827 65.6002 103.295C65.6002 105.763 66.5807 108.131 68.3261 109.876C70.0714 111.621 72.4386 112.602 74.9069 112.602ZM46.9868 84.6818C49.4551 84.6818 51.8223 83.7013 53.5677 81.956C55.313 80.2106 56.2935 77.8434 56.2935 75.3752C56.2935 72.9069 55.313 70.5397 53.5677 68.7943C51.8223 67.049 49.4551 66.0685 46.9868 66.0685C44.5186 66.0685 42.1514 67.049 40.406 68.7943C38.6607 70.5397 37.6802 72.9069 37.6802 75.3752C37.6802 77.8434 38.6607 80.2106 40.406 81.956C42.1514 83.7013 44.5186 84.6818 46.9868 84.6818ZM102.827 84.6818C105.295 84.6818 107.662 83.7013 109.408 81.956C111.153 80.2106 112.134 77.8434 112.134 75.3752C112.134 72.9069 111.153 70.5397 109.408 68.7943C107.662 67.049 105.295 66.0685 102.827 66.0685C100.359 66.0685 97.9914 67.049 96.2461 68.7943C94.5008 70.5397 93.5202 72.9069 93.5202 75.3752C93.5202 77.8434 94.5008 80.2106 96.2461 81.956C97.9914 83.7013 100.359 84.6818 102.827 84.6818Z" fill="black" stroke="black" stroke-width="3.30904" stroke-linejoin="round"/>
<path d="M74.9069 137.42H136.951" stroke="white" stroke-width="3.30904" stroke-linecap="round"/>
</mask>
<g mask="url(#mask0_41_165)">
<path d="M0.453445 0.921753H149.36V149.829H0.453445V0.921753Z" fill="white"/>
</g>
</svg>
