<svg width="75" height="75" viewBox="0 0 75 75" fill="none" xmlns="http://www.w3.org/2000/svg">
<path d="M62.625 27.2188V12.5H47.9375L37.5 2.15625L27.2188 12.5H12.5V27.2188L2.15625 37.5L12.5 47.9375V62.625H27.2188L37.5 72.9688L47.9375 62.625H62.625V47.9375L72.9688 37.5L62.625 27.2188ZM27.5938 22.0312C30.6563 22.0312 33.125 24.5 33.125 27.5938C33.125 29.0607 32.5422 30.4676 31.5049 31.5049C30.4676 32.5422 29.0607 33.125 27.5938 33.125C24.5 33.125 22.0312 30.6563 22.0312 27.5938C22.0312 24.5 24.5 22.0312 27.5938 22.0312ZM47.5625 53.125C44.5 53.125 42.0312 50.625 42.0312 47.5625C42.0312 46.0955 42.614 44.6886 43.6513 43.6513C44.6886 42.614 46.0955 42.0312 47.5625 42.0312C50.625 42.0312 53.125 44.5 53.125 47.5625C53.125 49.0378 52.539 50.4526 51.4958 51.4958C50.4526 52.539 49.0378 53.125 47.5625 53.125ZM26.5625 53.2188L21.875 48.5312L48.5312 21.875L53.2188 26.5625L26.5625 53.2188Z" fill="white"/>
</svg>
