<svg width="75" height="75" viewBox="0 0 75 75" fill="none" xmlns="http://www.w3.org/2000/svg">
<path d="M67.2422 21.7412C66.967 21.4824 66.6333 21.294 66.2696 21.192C65.9059 21.09 65.5229 21.0774 65.1533 21.1553C64.6982 19.5193 63.9243 17.9893 62.8761 16.6533C61.828 15.3172 60.5261 14.2015 59.0455 13.3701C57.5648 12.5386 55.9344 12.008 54.248 11.8086C52.5616 11.6092 50.8525 11.7449 49.2187 12.208C48.1904 9.96407 46.5395 8.06254 44.4621 6.7294C42.3847 5.39627 39.9683 4.68759 37.5 4.68759C35.0316 4.68759 32.6152 5.39627 30.5378 6.7294C28.4605 8.06254 26.8095 9.96407 25.7812 12.208C24.1478 11.7443 22.4389 11.6078 20.7527 11.8065C19.0664 12.0051 17.436 12.5349 15.9551 13.3655C14.4742 14.1961 13.1719 15.311 12.1232 16.6463C11.0744 17.9816 10.2997 19.5109 9.84372 21.1465C9.4587 21.0675 9.05999 21.0866 8.68428 21.202C8.30857 21.3174 7.96792 21.5255 7.69367 21.807C7.41942 22.0885 7.22038 22.4345 7.11486 22.8131C7.00933 23.1918 7.00072 23.5908 7.08981 23.9736L16.0429 62.0127C16.2853 63.0411 16.868 63.9575 17.6965 64.6132C18.525 65.2689 19.5508 65.6254 20.6074 65.625H54.3925C55.4491 65.6254 56.4749 65.2689 57.3034 64.6132C58.1319 63.9575 58.7146 63.0411 58.957 62.0127L67.9072 23.9736C68.0006 23.5758 67.9883 23.1606 67.8716 22.769C67.755 22.3774 67.538 22.0231 67.2422 21.7412ZM20.6074 60.9375L12.5713 26.7891L23.6601 29.9561L27.791 60.9375H20.6074ZM35.7597 21.6094L25.6552 25.6523L14.3554 22.4238C14.6825 21.2405 15.2711 20.1457 16.0776 19.2201C16.8842 18.2946 17.8882 17.5618 19.0157 17.076C20.1432 16.5901 21.3653 16.3635 22.592 16.4129C23.8187 16.4623 25.0187 16.7864 26.1035 17.3613C26.4225 17.5306 26.7763 17.6238 27.1373 17.6337C27.4983 17.6436 27.8568 17.57 28.1846 17.4185C28.5125 17.2671 28.8009 17.0419 29.0273 16.7606C29.2538 16.4793 29.4122 16.1495 29.4902 15.7969C29.8959 13.9759 30.9102 12.3475 32.3658 11.1805C33.8214 10.0135 35.6314 9.37752 37.497 9.37752C39.3627 9.37752 41.1726 10.0135 42.6283 11.1805C44.0839 12.3475 45.0982 13.9759 45.5039 15.7969C45.5818 16.1495 45.7403 16.4793 45.9667 16.7606C46.1932 17.0419 46.4816 17.2671 46.8095 17.4185C47.1373 17.57 47.4957 17.6436 47.8567 17.6337C48.2177 17.6238 48.5716 17.5306 48.8906 17.3613C49.9756 16.7853 51.1761 16.4603 52.4035 16.4104C53.6309 16.3604 54.8539 16.5867 55.9821 17.0727C57.1103 17.5586 58.115 18.2917 58.922 19.2179C59.729 20.1441 60.3176 21.2397 60.6445 22.4238L49.3476 25.6465L39.2431 21.6035C38.1244 21.1579 36.877 21.16 35.7597 21.6094ZM54.3925 60.9375H47.2089L51.3398 29.9561L62.4287 26.7891L54.3925 60.9375Z" fill="white"/>
</svg>
