<svg width="75" height="75" viewBox="0 0 75 75" fill="none" xmlns="http://www.w3.org/2000/svg">
<path d="M37.5 39.0625C34.5992 39.0625 31.8172 40.2148 29.766 42.266C27.7148 44.3172 26.5625 47.0992 26.5625 50C26.5625 52.9008 27.7148 55.6828 29.766 57.734C31.8172 59.7852 34.5992 60.9375 37.5 60.9375C40.4008 60.9375 43.1828 59.7852 45.234 57.734C47.2852 55.6828 48.4375 52.9008 48.4375 50C48.4375 47.0992 47.2852 44.3172 45.234 42.266C43.1828 40.2148 40.4008 39.0625 37.5 39.0625ZM32.8125 50C32.8125 48.7568 33.3064 47.5645 34.1854 46.6854C35.0645 45.8064 36.2568 45.3125 37.5 45.3125C38.7432 45.3125 39.9355 45.8064 40.8146 46.6854C41.6936 47.5645 42.1875 48.7568 42.1875 50C42.1875 51.2432 41.6936 52.4355 40.8146 53.3146C39.9355 54.1936 38.7432 54.6875 37.5 54.6875C36.2568 54.6875 35.0645 54.1936 34.1854 53.3146C33.3064 52.4355 32.8125 51.2432 32.8125 50Z" fill="white"/>
<path d="M54.7687 15.9875L44.8344 2.05938L8.30625 31.2406L6.28125 31.2187V31.25H4.6875V68.75H70.3125V31.25H67.3063L61.325 13.7531L54.7687 15.9875ZM60.7031 31.25H29.3656L52.7062 23.2937L57.4625 21.7719L60.7031 31.25ZM48.5938 18.0938L24.5 26.3062L43.5812 11.0625L48.5938 18.0938ZM10.9375 56.7781V43.2156C12.2559 42.7484 13.4535 41.9929 14.4428 41.0041C15.4321 40.0153 16.1883 38.8182 16.6562 37.5H58.3438C58.8115 38.8186 59.5676 40.0163 60.5569 41.0056C61.5462 41.9949 62.7439 42.751 64.0625 43.2187V56.7812C62.7439 57.249 61.5462 58.0051 60.5569 58.9944C59.5676 59.9837 58.8115 61.1814 58.3438 62.5H16.6625C16.1943 61.1802 15.4374 59.9817 14.4469 58.9918C13.4565 58.0019 12.2575 57.2456 10.9375 56.7781Z" fill="white"/>
</svg>
