<svg width="75" height="75" viewBox="0 0 75 75" fill="none" xmlns="http://www.w3.org/2000/svg">
<path d="M71.8039 26.5723L65.3396 20.1079C64.818 19.5934 64.1226 19.293 63.3905 19.2658C62.6584 19.2387 61.9426 19.4869 61.3845 19.9614C60.5227 20.6949 59.4169 21.0779 58.286 21.0345C57.1552 20.9911 56.082 20.5245 55.279 19.7271C54.482 18.9241 54.0156 17.8512 53.9722 16.7207C53.9288 15.5903 54.3116 14.4847 55.0446 13.623C55.5192 13.0649 55.7673 12.3492 55.7402 11.617C55.7131 10.8849 55.4127 10.1895 54.8981 9.66797L48.4279 3.19629C47.8811 2.65055 47.1402 2.34404 46.3676 2.34404C45.5951 2.34404 44.8541 2.65055 44.3073 3.19629L34.0021 13.5C33.366 14.1386 32.8863 14.9157 32.6003 15.7705C32.5446 15.9349 32.4519 16.0842 32.3292 16.2069C32.2065 16.3296 32.0571 16.4224 31.8928 16.478C31.0376 16.7639 30.2604 17.2443 29.6223 17.8813L3.19649 44.3071C2.65075 44.8539 2.34424 45.5949 2.34424 46.3674C2.34424 47.14 2.65075 47.8809 3.19649 48.4277L9.66817 54.8921C10.1897 55.4066 10.8851 55.707 11.6172 55.7342C12.3494 55.7613 13.0651 55.5131 13.6232 55.0386C14.4829 54.2991 15.5903 53.9119 16.7235 53.9544C17.8566 53.997 18.9318 54.4662 19.7337 55.268C20.5355 56.0698 21.0047 57.1451 21.0472 58.2782C21.0898 59.4114 20.7025 60.5187 19.9631 61.3784C19.4886 61.9366 19.2404 62.6523 19.2675 63.3844C19.2946 64.1166 19.5951 64.812 20.1096 65.3335L26.5739 71.7979C27.1207 72.3436 27.8617 72.6501 28.6342 72.6501C29.4068 72.6501 30.1477 72.3436 30.6945 71.7979L57.1203 45.3721C57.7572 44.7344 58.2375 43.9577 58.5236 43.103C58.579 42.9381 58.6719 42.7883 58.7949 42.6653C58.9179 42.5423 59.0677 42.4495 59.2326 42.394C60.087 42.1082 60.8637 41.6284 61.5017 40.9922L71.8054 30.687C72.3491 30.1403 72.6542 29.4004 72.654 28.6293C72.6537 27.8582 72.3481 27.1186 71.8039 26.5723ZM38.3513 22.229C38.1336 22.4467 37.8752 22.6194 37.5908 22.7372C37.3064 22.855 37.0016 22.9157 36.6938 22.9157C36.386 22.9157 36.0812 22.855 35.7968 22.7372C35.5124 22.6194 35.254 22.4467 35.0363 22.229L33.3503 20.543C32.9215 20.1012 32.6837 19.5085 32.6883 18.8928C32.6929 18.2772 32.9396 17.6881 33.3751 17.2528C33.8105 16.8176 34.3997 16.5711 35.0154 16.5668C35.631 16.5624 36.2237 16.8005 36.6652 17.2295L38.3513 18.9141C38.569 19.1317 38.7417 19.3901 38.8595 19.6745C38.9773 19.9589 39.0379 20.2637 39.0379 20.5715C39.0379 20.8794 38.9773 21.1842 38.8595 21.4686C38.7417 21.753 38.569 22.0114 38.3513 22.229ZM44.7966 28.6743C44.3571 29.1135 43.7612 29.3602 43.1398 29.3602C42.5185 29.3602 41.9226 29.1135 41.4831 28.6743L39.8718 27.063C39.4322 26.6234 39.1852 26.0272 39.1852 25.4055C39.1852 24.7838 39.4322 24.1876 39.8718 23.748C40.3114 23.3085 40.9076 23.0615 41.5293 23.0615C42.1509 23.0615 42.7471 23.3085 43.1867 23.748L44.798 25.3594C45.0165 25.577 45.1899 25.8356 45.3082 26.1203C45.4265 26.4051 45.4875 26.7104 45.4876 27.0187C45.4878 27.3271 45.4271 27.6324 45.309 27.9173C45.1909 28.2021 45.0178 28.4609 44.7995 28.6787L44.7966 28.6743ZM51.2419 35.1196C51.0243 35.3373 50.7659 35.51 50.4815 35.6278C50.1971 35.7456 49.8923 35.8063 49.5844 35.8063C49.2766 35.8063 48.9718 35.7456 48.6874 35.6278C48.403 35.51 48.1446 35.3373 47.927 35.1196L46.3156 33.5083C45.8868 33.0665 45.649 32.4738 45.6536 31.8581C45.6583 31.2425 45.905 30.6534 46.3404 30.2181C46.7758 29.7829 47.3651 29.5365 47.9807 29.5321C48.5964 29.5277 49.189 29.7658 49.6306 30.1948L51.2419 31.8062C51.4609 32.0234 51.635 32.2818 51.7539 32.5665C51.8729 32.8511 51.9345 33.1565 51.9352 33.465C51.9358 33.7736 51.8756 34.0792 51.7579 34.3644C51.6402 34.6496 51.4673 34.9087 51.2492 35.127L51.2419 35.1196ZM57.7502 41.644C57.5326 41.8617 57.2742 42.0344 56.9898 42.1522C56.7054 42.2701 56.4006 42.3307 56.0927 42.3307C55.7849 42.3307 55.4801 42.2701 55.1957 42.1522C54.9113 42.0344 54.6529 41.8617 54.4353 41.644L52.7595 39.9595C52.5372 39.7425 52.3603 39.4835 52.239 39.1975C52.1178 38.9115 52.0545 38.6043 52.0531 38.2936C52.0516 37.983 52.1119 37.6752 52.2304 37.3881C52.3489 37.101 52.5233 36.8403 52.7435 36.6211C52.9637 36.402 53.2253 36.2289 53.513 36.1117C53.8006 35.9946 54.1088 35.9358 54.4194 35.9388C54.73 35.9418 55.0369 36.0065 55.3223 36.1292C55.6077 36.2518 55.8658 36.43 56.0817 36.6533L57.759 38.3364C57.9766 38.5542 58.1492 38.8126 58.2668 39.0971C58.3845 39.3815 58.445 39.6864 58.4449 39.9942C58.4448 40.302 58.384 40.6068 58.2661 40.8912C58.1481 41.1755 57.9753 41.4338 57.7575 41.6514L57.7502 41.644Z" fill="white"/>
</svg>
